<svg xmlns="http://www.w3.org/2000/svg" width="22" height="20" viewBox="0 0 30 26" fill="none">
<path d="M0.000147154 0.631931C0.0273148 0.674633 0.183529 0.89142 0.346534 1.11806C2.37392 3.89361 3.69494 7.25054 4.10246 10.6797C4.20773 11.56 4.24169 12.1348 4.24169 13.1235C4.24169 14.1122 4.20773 14.687 4.10246 15.5673C3.69155 19.0129 2.36033 22.3929 0.315971 25.175C0.139381 25.4148 0.000147154 25.6184 0.00693906 25.625C0.013731 25.6316 2.88331 22.8593 6.38454 19.4597L12.7486 13.2779L12.7587 13.6195C12.7723 14.0038 12.7214 14.8316 12.6433 15.4721C12.2324 18.967 10.9521 22.2483 8.90094 25.0896C8.71756 25.3392 8.55116 25.5757 8.52399 25.6151C8.49682 25.6546 11.363 22.8987 14.8914 19.4892C18.4164 16.0765 21.3064 13.2878 21.3064 13.2878C21.3064 13.2878 21.2962 13.5801 21.286 13.9348C21.2147 15.991 20.7868 18.1688 20.0567 20.1527C19.4046 21.9166 18.4572 23.6903 17.3772 25.1553C17.2142 25.3754 17.0614 25.5856 17.041 25.6217C17.0207 25.6578 19.9276 22.8593 23.5001 19.4071L30 13.1235L23.5001 6.83996C19.9276 3.38777 17.0207 0.589231 17.041 0.625362C17.0614 0.661493 17.2142 0.871712 17.3772 1.09179C18.0123 1.95237 18.5285 2.79325 19.065 3.84434C20.257 6.17317 20.9566 8.57426 21.2249 11.2677C21.252 11.5699 21.3199 12.9593 21.303 12.9593C21.303 12.9593 18.4164 10.1706 14.888 6.75784C11.363 3.34835 8.49682 0.592516 8.52399 0.631931C8.55116 0.671349 8.71756 0.907845 8.90094 1.15748C10.6261 3.54543 11.8113 6.25857 12.3886 9.14908C12.6161 10.2987 12.7655 11.6586 12.7621 12.5651V12.9757L6.35737 6.7677C2.83577 3.35164 -0.0236245 0.592516 0.000147154 0.631931Z" fill="#FFF"/>
</svg>